<?xml version="1.0" encoding="utf-8"?>
<!-- Generator: Adobe Illustrator 25.2.3, SVG Export Plug-In . SVG Version: 6.00 Build 0)  -->
<svg version="1.1" id="Ebene_1" xmlns="http://www.w3.org/2000/svg" xmlns:xlink="http://www.w3.org/1999/xlink" x="0px" y="0px"
	 viewBox="0 0 1176.4 807.9" style="enable-background:new 0 0 1176.4 807.9;" xml:space="preserve">
<style type="text/css">
	.st0{fill:none;stroke:#E52521;stroke-width:0.8504;stroke-linecap:round;stroke-miterlimit:11.3386;}
</style>
<path id="top_outsideCutPath" vector-effect="non-scaling-stroke" class="st0" d="M25.5,425.6l-1.4,51.7h-17v38.3h17v34.7h47.5v17
	h38.3v-17h38.3v17h38.3v-17h38.3v17h38.3v-17h38.3v17h38.3v-17h38.3v17H416v-17h38.3v17h38.3v-17h38.3v17h38.3v-17h38.3v17h38.3v-17
	h38.3v17h38.3v-17h38.3v17h38.3v-17h38.3v17h38.3v-17h38.3v17h38.3v-17H990v17h38.3v-17h38.3v17h38.3v-17h47.5v-34.7h17v-38.3h-17
	v-51.7h-47.5l0,0h-38.3h2.8H1031h-2.8H990l0,0h-38.3l0,0h-38.3h4.1h-38.3h-4.1h-38.3h5.5h-38.3h-5.5h-38.3h2.8h-38.3h-2.8h-38.3h2.8
	h-38.3h-2.8h-38.3h-2.8h-38.3h2.8h-38.3h1.4h-38.3h-1.4h-38.3h-1.4h-38.3h1.4h-38.3h2.8h-38.3h-2.8h-38.3l0,0h-38.3l0,0h-38.3l0,0
	h-38.3l0,0h-38.3H144h-38.3h4.1H71.6H73H25.5z"/>
<path id="top_outsideCutPath_1_" vector-effect="non-scaling-stroke" class="st0" d="M24.1,217v34.7h-17V290h17v51.7h47.5l0,0h38.3
	l0,0h38.3l0,0h38.3l0,0h38.3l0,0h38.3l0,0h38.3l0,0h38.3l0,0h38.3l0,0H416l0,0h38.3l0,0h38.3l0,0h38.3l0,0h38.3l0,0h38.3l0,0h38.3
	l0,0h38.3l0,0h38.3l0,0h38.3l0,0h38.3l0,0h38.3l0,0h38.3l0,0h38.3l0,0h38.3l0,0H990l0,0h38.3l0,0h38.3l0,0h38.3l0,0h47.5V290h17
	v-38.3h-17V217h-47.5v-17h-38.3v17h-38.3v-17H990v17h-38.3v-17h-38.3v17h-38.3v-17h-38.3v17h-38.3v-17h-38.3v17h-38.3v-17h-38.3v17
	h-38.3v-17h-38.3v17h-38.3v-17h-38.3v17h-38.3v-17h-38.3v17H416v-17h-38.3v17h-38.3v-17h-38.3v17h-38.3v-17h-38.3v17h-38.3v-17
	h-38.3v17h-38.3v-17H71.6v17H24.1z"/>
<circle class="st0" cx="148.8" cy="496.5" r="7.1"/>
</svg>
