<?xml version="1.0" encoding="utf-8"?>
<!-- Generator: Adobe Illustrator 25.2.3, SVG Export Plug-In . SVG Version: 6.00 Build 0)  -->
<svg version="1.1" id="Ebene_1" xmlns="http://www.w3.org/2000/svg" xmlns:xlink="http://www.w3.org/1999/xlink" x="0px" y="0px"
	 viewBox="0 0 595.3 841.9" style="enable-background:new 0 0 595.3 841.9;" xml:space="preserve">
<style type="text/css">
	.st0{fill:none;stroke:#E30613;stroke-miterlimit:10;}
</style>
<g>
	<path class="st0" d="M419.4,480.2c1.2,3.9,22.6,4.8,25,3.5c1.3-0.3,2.6-0.6,4-0.9c1.1-0.2,2.2-0.4,3.4-0.3c2.1,0.1,4.2,0.4,6.3,0.4
		c2,0.1,3.5-0.8,4.8-2.8c-0.8-0.5-1.8-1.6-2.3-1.4c-2,0.7-3.7-0.3-5.4-0.8c-5.4-1.5-10.7-3.4-16.2-4.5c-4.3-0.9-8.4-2.9-12.9-2.9
		c-1.6,0-3.1-0.1-4.7,0c-0.5,0-1,0.5-1.9,0.9 M423.9,494.1c1.4-0.1,2.8-0.4,4.2-0.8c1-0.3,1.9-1.1,3.1-1.8"/>
	<path class="st0" d="M260.3,491.7c0-0.2,19.2-25.1,19.3-25.2c1.4-1.6,2.9-3.2,4.3-4.8c3.1-3.5,6.7-6.6,10.7-9.1
		c4.7-3,9.8-5.4,15.2-6.9c0.6-0.2,1.2-0.6,1.7-1c1.1-0.8,2-1.7,3.1-2.3c2.5-1.4,5-2.8,7.5-4.1c3.7-1.9,7.4-3.6,11-5.5
		c3.8-1.9,7.5-3.9,11.3-5.7c5.3-2.5,10.6-5,16-7.3c7.3-3.2,15-5.1,22.8-6.5c6.5-1.1,13.2-1.5,19.7-0.3c3.6,0.7,7.2,0.1,10.8-0.2
		c7.1-0.7,14.2-1.2,21.3-1.6c7.2-0.3,14.4,0.1,21.5,1c2,0.3,3.9,0.9,5.8,1.6c2,0.8,2.2,2.6,0.3,3.6c-2.1,1.1-4.4,1.8-6.6,2.7
		c-0.5,0.2-1,0.4-1.4,0.7c0,0.1,0,0.3,0.1,0.4c1.8,0.1,3.5,0.2,5.3,0.3c3.2,0.1,6.3,0.2,9.5,0.2c3,0,6-0.2,9.1-0.3
		c4-0.1,8.1-0.1,12.1-0.2c1.9,0,3.8-0.3,5.7,0c1.7,0.2,3.4,0.7,5,1.4c1.6,0.7,1.5,2.3,0,3.2c-3.1,1.9-6.6,2.9-10.2,3.7
		c-2.6,0.6-5.1,1.5-7.6,2.2c-5.5,1.5-11.2,2.2-17,1.9c-3.2-0.1-6.4,0.1-9.6,0.1c-2,0-3.9-0.3-5.9-0.3c-4-0.1-8-0.3-12-0.3
		c-3.6,0-7.1,0.3-10.7,0.4c-4,0.1-8.1-0.2-12.1,0c-3,0.2-6.1-0.5-8.9,0.9c-1,0.5-1.9,1-2.8,1.6c0,0.2,0,0.4,0.1,0.6
		c1.3,0.2,2.6,0.5,3.8,0.5c5.8,0.1,11.7-0.1,17.5,0.2c6.7,0.3,13.4,0.7,20.1,1.3c6.4,0.6,12.8,1.3,19.2,2.2
		c4.9,0.7,9.7,1.9,14.6,2.8c5.2,0.9,10.3,1.9,15.5,2.4c4.9,0.5,9.5,1.6,14.1,3.2c0.9,0.3,1.9,0.4,2.8,0.5c1.4,0.2,2.6,1.1,2.7,2.3
		c0.1,0.9-0.8,2-1.6,2.6s-1.9,1-3,1.2c-4.7,0.6-9.3,1.3-14,1.7c-2.9,0.2-5.9,0.2-8.9,0c-2.7-0.2-5.4-0.7-8.1-1.1
		c-0.4-0.1-0.8-0.2-1.2-0.2c-1.2,0.2-2.3,0-3.5-0.6c-0.6-0.3-1.3-0.2-2-0.2c-0.4,0-0.7,0-1.1-0.1c-3.5-0.8-7-1.6-10.5-2.2
		c-1.2-0.2-2.5,0-3.7-0.1c-5.3-0.3-10.5-0.7-15.8-1c-3.2-0.2-6.5-0.6-9.7-0.6c-2,0-4.1,0.5-6.1,0.7c0,0.2,0,0.4,0,0.7
		c2.3,0.4,4.6,0.8,6.8,1.1c5.3,0.9,10.5,1.7,15.8,2.7c4.3,0.8,8.6,1.5,12.8,2.5c4.6,1,9.2,2.2,13.7,3.2c5.8,1.3,11.7,2.5,17.5,4
		c5,1.3,9.8,3.1,14.1,5.9c0.5,0.3,1,1,1.2,1.5c0.1,0.2-0.4,0.9-0.7,1c-1,0.2-2.1,0.5-3.1,0.4c-4.7-0.5-9.3-0.2-13.9,0.7
		c-1.5,0.3-3.2,0-4.8-0.1c-3.5-0.3-6.9-0.6-10.4-1c-0.2,0-0.3,0-0.4-0.1c-2.7-2.1-6-0.8-8.9-1.4c-2.5-0.6-5.2-0.7-7.8-1
		c-0.5-0.1-1-0.2-1.5-0.1c-1.6,0.3-3,0.2-4.5-0.9c-1.7-1.3-3.8-0.7-5.7-0.5c-1.6,0.2-3,0.4-4.5,1.4c-0.8,0.5-2.5-0.1-3.8-0.4
		c-1-0.3-1.8-1-2.7-1.3c-0.5-0.2-2.3,0.6-2.6,0.9 M250.4,506.8c3.2-6.8,7.5-12.3,12-17.7 M250.4,506.8l6,12.5h148.2v-12l9.4-3.3
		l-6.9-6l16.7-3.9"/>
	<path class="st0" d="M419.4,480.2c-1.3,0.7,12.5,10.4,11.8,11.2"/>
	<path class="st0" d="M267.3,485.2"/>
	<path class="st0" d="M423,473.5"/>
</g>
</svg>
