<?xml version="1.0" encoding="utf-8"?>
<!-- Generator: Adobe Illustrator 25.2.3, SVG Export Plug-In . SVG Version: 6.00 Build 0)  -->
<svg version="1.1" id="Ebene_1" xmlns="http://www.w3.org/2000/svg" xmlns:xlink="http://www.w3.org/1999/xlink" x="0px" y="0px"
	 viewBox="0 0 1190.6 841.9" style="enable-background:new 0 0 1190.6 841.9;" xml:space="preserve">
<style type="text/css">
	.st0{fill:none;stroke:#FF0000;stroke-width:0.8504;stroke-linecap:round;stroke-miterlimit:11.3386;}
</style>
<g id="svgGroup">
	<path id="back_outsideCutPath" vector-effect="non-scaling-stroke" class="st0" d="M14.2,24.1v71.6h17V134h-17v38.3h17v38.3h-17
		v38.3h17V287h-17v38.3h17v38.3h-17v38.3h17v38.3h-17v38.3h17v38.3h-17v38.3h17v38.3h-17v38.3h17V670h-17v38h17v38.3h-17v38.3v33.3
		h64.5v-17H117v17h38.3v-17h38.3v17h38.3v-17H270v17h38.3v-17h38.3v17h38.3v-17h38.3v17h38.3v-17h38.3v17h38.3v-17h38.3v17h38.3v-17
		H653v17h38.3v-17h38.3v17h38.3v-17h38.3v17H844v-17h38.3v17h38.3v-17h38.3v17h38.3v-17h38.3v17h38.3v-17h38.3v17h64.5v-71.6h-17
		V708h17v-38.3h-17v-38.3h17v-38.3h-17v-38.3h17v-38.3h-17v-38.3h17v-38.3h-17v-38.3h17v-38.3h-17V325h17v-38h-17v-38.3h17v-38.3
		h-17v-38.3h17v-38.3h-17V95.7h17V57.4V24.1h-64.5v17h-38.3v-17h-38.3v17h-38.3v-17h-38.3v17h-38.3v-17h-38.3v17H844v-17h-38.3v17
		h-38.3v-17h-38.3v17h-38.3v-17h-38.3v17h-38.3v-17h-38.3v17h-38.3v-17h-38.3v17H461v-17h-38.3v17h-38.3v-17h-38.3v17h-38.3v-17H270
		v17h-38.3v-17h-38.3v17h-38.3v-17h-38.3v17H78.7v-17C78.7,24.1,14.2,24.1,14.2,24.1z"/>
</g>
<circle class="st0" cx="508.4" cy="414.9" r="18.1"/>
<circle class="st0" cx="682.5" cy="414.9" r="18.1"/>
<circle class="st0" cx="508.4" cy="344.2" r="18.1"/>
<circle class="st0" cx="683.5" cy="344.2" r="18.1"/>
<polyline class="st0" points="490.3,732.9 490.3,547.9 85.3,547.9 86,732.9 "/>
</svg>
