<?xml version="1.0" encoding="utf-8"?>
<!-- Generator: Adobe Illustrator 25.2.3, SVG Export Plug-In . SVG Version: 6.00 Build 0)  -->
<svg version="1.1" id="Ebene_1" xmlns="http://www.w3.org/2000/svg" xmlns:xlink="http://www.w3.org/1999/xlink" x="0px" y="0px"
	 viewBox="0 0 1176.4 807.9" style="enable-background:new 0 0 1176.4 807.9;" xml:space="preserve">
<style type="text/css">
	.st0{fill:none;}
	.st1{fill:none;stroke:#BE1622;stroke-miterlimit:11.3386;}
	.st2{fill:none;stroke:#E30613;stroke-miterlimit:10;}
	.st3{fill:none;stroke:#E52521;stroke-width:0.8504;stroke-linecap:round;stroke-miterlimit:11.3386;}
</style>
<polygon class="st0" points="693.6,183.2 700.5,183.2 700.5,183.2 "/>
<g>
	<path class="st1" d="M80,137.8l-1.7-5.6c-0.2-0.7-1.2-3.6-2.9-8.5l-8.6-24.5l-7.9-22c3,0.1,5.6,0.1,7.6,0.1c1.2,0,3.4,0,6.5-0.1
		l1.4,4.9c0.3,1,0.7,2.4,1.3,4.1l10.8,32.6c0.7,2.1,1.5,4.9,2.5,8.3l2.4-5.4c0.6-1.3,1.8-3.9,3.7-7.8l14-29.2
		c0.4-0.9,0.8-1.8,1.2-2.7c0.4-1,1.1-2.5,2-4.7c3.2,0.1,5.7,0.1,7.4,0.1c1,0,3.3,0,7-0.1l-3.8,7.1l-24.3,48L96,138
		c-3.9-0.1-6.4-0.1-7.7-0.1C87,137.7,84.3,137.8,80,137.8z"/>
	<path class="st1" d="M162.5,76.1c4.4,0,8.6,0.6,12.7,1.8c4.1,1.2,7.7,3.2,10.8,5.9c3.1,2.7,5.5,5.9,7.1,9.6s2.4,7.9,2.4,12.8
		c0,4.6-0.8,8.9-2.3,13.1s-3.9,7.7-7,10.8c-3.2,3-7,5.2-11.6,6.7c-4.5,1.5-9.3,2.2-14.3,2.2c-4.7,0-9.3-0.7-13.7-2
		s-8.1-3.4-11.3-6.3c-3.2-2.8-5.4-6.1-6.8-9.8c-1.4-3.7-2-7.7-2-12c0-4.7,0.9-9.2,2.6-13.5c1.7-4.3,4.2-7.8,7.5-10.7
		c3.3-2.8,7.2-4.9,11.6-6.4C152.7,76.8,157.4,76.1,162.5,76.1z M161.8,85.6c-4.5,0-8.4,1-11.7,3.1s-5.8,4.9-7.5,8.4
		c-1.7,3.6-2.5,7.4-2.5,11.6c0,3.9,0.8,7.4,2.4,10.6c1.6,3.2,4.1,5.7,7.4,7.4c3.3,1.7,7,2.6,10.8,2.6c2.9,0,5.7-0.5,8.4-1.5
		s5-2.5,6.9-4.6s3.4-4.5,4.4-7.4s1.5-5.9,1.5-9.1c0-2.9-0.4-5.7-1.3-8.4c-0.9-2.7-2.2-5-4.1-7c-1.8-1.9-4.1-3.4-6.6-4.3
		C167.4,86,164.7,85.6,161.8,85.6z"/>
	<path class="st1" d="M239,103.2c4.1,0.1,8,0.1,11.7,0.1c4.9,0,9,0,12.2-0.1c-0.8,9.9-1.3,20.9-1.7,33.1c-4.9,1-9.4,1.7-13.3,2.1
		c-4,0.4-7.3,0.6-10.1,0.6c-5.2,0-10-0.5-14.5-1.6s-8.2-2.9-11.3-5.3c-3.1-2.5-5.4-5.7-7-9.7s-2.4-8.3-2.4-12.7
		c0-3.8,0.6-7.5,1.8-11.1s3-6.8,5.3-9.8c2.4-3,5.2-5.4,8.5-7.4s6.9-3.3,10.6-4c3.7-0.7,7.7-1.1,11.9-1.1c5.7,0,12.4,0.8,19.8,2.3
		c0,3.4,0.2,6.9,0.5,10.6c-7-2.3-13.3-3.5-19-3.5c-3.6,0-7.1,0.5-10.3,1.6c-3.2,1-6,2.6-8.4,4.8c-2.4,2.2-4.1,4.9-5.4,8.1
		c-1.2,3.2-1.8,6.5-1.8,10c0,3.8,0.7,7.2,2.1,10.2c1.4,3,3.8,5.3,7.1,7s7.1,2.5,11.4,2.5c1.6,0,3.4-0.1,5.6-0.4
		c2.1-0.3,4.4-0.8,6.7-1.4l0.7-15.6h-3.5c-2,0-4.5,0-7.6,0.1C238.8,108.3,239,105.3,239,103.2z"/>
	<path class="st1" d="M273.3,137.8l1.3-17l0.9-19.7l0.6-17.9v-6c7.3,0.1,14.9,0.1,22.9,0.1h8.5h12.8l-0.5,9.6l-4.2-0.2
		c-1.2-0.1-2.8-0.1-4.8-0.1s-4.1,0-6.3,0c-4.6,0-7.6,0-9,0c-1.3,0-3.4,0.1-6.1,0.2l-0.7,15.8c4.1,0.1,8.1,0.1,12.3,0.1
		c2.8,0,7.6-0.1,14.4-0.3c-0.2,2.7-0.4,5.9-0.6,9.7c-7.9-0.1-12.4-0.1-13.6-0.1c-3.5,0-7.8,0.1-13.1,0.3l-0.7,16.6h4.9
		c1.4,0,4.7,0,9.8-0.1l9.6-0.2l6.4-0.3c-0.3,3.4-0.5,6.7-0.6,9.7c-7.7-0.1-14.6-0.1-20.8-0.1h-14.6L273.3,137.8z"/>
	<path class="st1" d="M328.6,137.8c0.9-8.9,1.6-18.8,2.1-29.8c0.5-10.9,0.8-21.2,0.9-30.9c3,0.1,5.5,0.1,7.6,0.1
		c1.4,0,3.5,0,6.5-0.1c-0.4,5.3-0.8,11.4-1.1,18.2l-0.9,17.8c-0.3,5.1-0.5,10.2-0.6,15.2l7.7,0.1c7.2,0,11.9,0,14.1-0.1
		c2.3,0,4.5-0.1,6.7-0.2c-0.3,2.9-0.5,6.1-0.7,9.6c-7.8-0.1-14.5-0.1-20-0.1h-14L328.6,137.8z"/>
	<path class="st1" d="M374.6,137.8c0.3-4,0.4-7.4,0.4-10l2.1-2.3c0.1-0.1,1.3-1.6,3.8-4.5l21.8-26.1l6.9-8.5h-2.9h-1.1h-3.9h-6.8
		c-5.6,0-11,0.2-16.3,0.5c0.2-2.3,0.3-4.8,0.3-7.5c0-0.5,0-1.2,0-2.1c7.7,0.1,15.9,0.1,24.6,0.1h14.8h8.1c-0.2,3.2-0.4,6.5-0.4,9.9
		l-3,3.3c-0.6,0.7-1.2,1.3-1.7,2L405.4,112l-13.9,16.6h3.6c10,0,16.5,0,19.4-0.1s6-0.2,9.4-0.4c-0.2,4.1-0.4,7.4-0.4,9.8
		c-8.5-0.1-16.3-0.1-23.4-0.1h-16.4H374.6z"/>
	<path class="st1" d="M454,69.5l0.4-7.2c2,0.1,3.5,0.1,4.7,0.1c1.1,0,2.6,0,4.4-0.1c-0.1,0.6-0.1,3-0.3,7.2
		c-1.8-0.1-3.2-0.1-4.4-0.1C457.8,69.4,456.2,69.4,454,69.5z M451.2,116.3c-3.5,7.1-6.8,14.2-10.1,21.6l-7.2-0.1
		c-1.4,0-3.9,0-7.7,0.1c3.1-5.5,6.7-12.2,10.8-20.2l11.7-22.4c3.6-6.9,6.7-12.9,9.1-18c3.9,0.1,6.6,0.1,8.2,0.1c2.8,0,5.6,0,8.3-0.1
		l6.3,18.2l13.8,37.6l1.9,4.9l-6.7-0.1c-1.5,0-4.1,0-7.8,0.1c-0.7-2.6-1.8-6.2-3.4-10.7c-1.5-4.5-2.8-8.1-3.9-10.9h-13.2l-0.1-9.2
		c0,0,7,0,11,0c-2.3-6.9-4.7-13.7-7-20.6l-3.6,7.5C451.2,116.3,451.2,116.3,451.2,116.3L451.2,116.3 M469,69.5l0.4-7.2
		c2,0.1,3.5,0.1,4.6,0.1s2.6,0,4.4-0.1l-0.3,7.2c-1.8-0.1-3.2-0.1-4.4-0.1C472.8,69.4,471.2,69.4,469,69.5z"/>
	<path class="st1" d="M502.8,137.8l1-16c0.6-8.7,1-16.8,1.2-24.2c0.2-7.4,0.4-12.6,0.4-15.6v-4.9c3.5,0.1,6,0.1,7.4,0.1
		c1.1,0,3.3,0,6.7-0.1l-1.2,20l-0.1,4.6h30.2l0.5-12c0.1-4.1,0.2-6.8,0.2-8.1v-4.5l7.4,0.1c0.7,0,2.9,0,6.7-0.1l-1.5,24.2l-0.6,18
		l-0.2,10.5c-0.1,4.3-0.1,7-0.1,8l-6.9-0.1c-0.9,0-3.3,0-7.4,0.1c0.8-8.4,1.3-17.2,1.5-26.4h-30.3l-0.6,16.4l-0.2,10.1l-7.3-0.1
		C508.8,137.7,506.5,137.8,502.8,137.8z"/>
	<path class="st1" d="M573,137.8c0.9-8.9,1.6-18.8,2.1-29.8c0.5-10.9,0.8-21.2,0.9-30.9c3,0.1,5.5,0.1,7.6,0.1c1.4,0,3.5,0,6.5-0.1
		c-0.4,5.3-0.8,11.4-1.1,18.2l-0.9,17.8c-0.3,5.1-0.5,10.2-0.6,15.2l7.7,0.1c7.2,0,11.9,0,14.1-0.1c2.3,0,4.5-0.1,6.7-0.2
		c-0.3,2.9-0.5,6.1-0.7,9.6c-7.8-0.1-14.5-0.1-20-0.1h-14L573,137.8z"/>
	<path class="st1" d="M622.1,137.8l1.3-17l0.9-19.7l0.6-17.9v-6c7.3,0.1,14.9,0.1,22.9,0.1h8.5h12.8l-0.5,9.6l-4.2-0.2
		c-1.2-0.1-2.8-0.1-4.8-0.1s-4.1,0-6.3,0c-4.6,0-7.6,0-9,0c-1.3,0-3.4,0.1-6.1,0.2l-0.7,15.8c4.1,0.1,8.1,0.1,12.3,0.1
		c2.8,0,7.6-0.1,14.4-0.3c-0.2,2.7-0.4,5.9-0.6,9.7c-7.9-0.1-12.4-0.1-13.6-0.1c-3.5,0-7.8,0.1-13.1,0.3l-0.7,16.6h4.9
		c1.4,0,4.7,0,9.8-0.1l9.6-0.2l6.4-0.3c-0.3,3.4-0.5,6.7-0.6,9.7c-7.7-0.1-14.6-0.1-20.8-0.1h-14.6L622.1,137.8z"/>
	<path class="st1" d="M677.7,137.8c0.9-8.8,1.6-19,2-30.4c0.4-11.5,0.7-21.5,0.7-30.2c3.6,0.1,6.5,0.1,8.9,0.1c2.6,0,5.1,0,7.6-0.1
		s5.1-0.1,7.8-0.1c3.4,0,6.5,0.2,9.2,0.6s5.1,1.3,7.2,2.7c2.1,1.4,3.7,3.1,4.7,5.1s1.5,4.3,1.5,6.9c0,1.7-0.2,3.2-0.6,4.7
		c-0.4,1.5-1,2.9-1.7,4.2c-0.8,1.3-1.7,2.5-2.7,3.5s-2.1,1.8-3.1,2.4s-2.2,1.1-3.5,1.5s-3.1,0.9-5.2,1.5l3,5.9c1,1.9,2.8,5.2,5.6,10
		l4.5,7.9c0.2,0.4,0.9,1.8,2.1,4c-3.6-0.1-6-0.1-7.2-0.1c-1.4,0-3.9,0-7.5,0.1l-4.9-11.8c-0.9-1.8-1.9-3.9-3.1-6.4l-5.4-10.8
		c-0.5-1-1.3-2.5-2.2-4.5c2,0.4,3.8,0.5,5.4,0.5c2.5,0,4.9-0.4,7-1.2c2.1-0.8,3.7-2.1,4.8-3.8c1.1-1.7,1.7-3.6,1.7-5.7
		c0-1.2-0.2-2.4-0.7-3.5s-1.3-2-2.5-2.7s-2.5-1.2-4.1-1.4c-1.6-0.2-3.2-0.3-4.8-0.3c-0.9,0-2.1,0-3.6,0s-3.4,0-5.7,0l-0.8,18.3
		l-0.8,33.3l-6.9-0.1C683.3,137.7,681.1,137.8,677.7,137.8z"/>
</g>
<circle class="st2" cx="151.3" cy="361" r="5.7"/>
<circle class="st2" cx="252.7" cy="361" r="5.7"/>
<polygon class="st0" points="-178.6,337.7 -174.5,337.7 -174.5,337.7 "/>
<rect x="776" y="666.5" class="st2" width="34.6" height="52.4"/>
<rect x="722.4" y="666.5" class="st2" width="36" height="52.4"/>
<rect x="6.2" y="7.6" class="st3" width="1162.2" height="793.7"/>
</svg>
