<?xml version="1.0" encoding="utf-8"?>
<!-- Generator: Adobe Illustrator 25.2.3, SVG Export Plug-In . SVG Version: 6.00 Build 0)  -->
<svg version="1.1" id="Ebene_1" xmlns="http://www.w3.org/2000/svg" xmlns:xlink="http://www.w3.org/1999/xlink" x="0px" y="0px"
	 viewBox="0 0 1176.4 807.9" style="enable-background:new 0 0 1176.4 807.9;" xml:space="preserve">
<style type="text/css">
	.st0{fill:none;stroke:#E52521;stroke-width:0.8504;stroke-linecap:round;stroke-miterlimit:11.3386;}
</style>
<path id="left_outsideCutPath" vector-effect="non-scaling-stroke" class="st0" d="M869.7,7.1v71.6l0,0V117l0,0v38.3l0,0v38.3v-3
	v38.3v3V270v-1v38.3v1v38.3v-2v38.3v2v38.3v4v38.3v-4v38.3v-1v38.3v1v38.3l0,0v38.3l0,0V653v-2v38.3v2v38.3l0,0v38.3v33.3h51.7v-17
	h38.3v17h34.7v-71.6h17v-38.3h-17V653h17v-38.3h-17v-38.3h17v-38.3h-17v-38.3h17v-38.3h-17v-38.3h17v-38.3h-17v-38.3h17v-38.3h-17
	V270h17v-38.3h-17v-38.3h17v-38.3h-17v-38.3h17V78.7h-17V40.4V7.1h-34.7v17h-38.3v-17C921.4,7.1,869.7,7.1,869.7,7.1z"/>
<path id="right_outsideCutPath" vector-effect="non-scaling-stroke" class="st0" d="M714.7,7.1v71.6h-17V117h17v38.3h-17v38.3h17
	v38.3h-17V270h17v38.3h-17v38.3h17v38.3h-17v38.3h17v38.3h-17v38.3h17v38.3h-17v38.3h17v38.3h-17V653h17v38.3h-17v38.3h17v38.3v33.3
	h34.7v-17h38.3v17h51.7v-71.6l0,0v-38.3v-1V652v1v-38.3l0,0v-38.3l0,0v-38.3v2v-38.3v-2v-38.3v3v-38.3v-3v-38.3v2v-38.3v-2v-38.3
	l0,0V270l0,0v-38.3l0,0v-38.3l0,0v-38.3v3v-38.3v-3V78.7l0,0V45V7.1h-51.7v17h-38.3v-17C749.4,7.1,714.7,7.1,714.7,7.1z"/>
<circle class="st0" cx="777.5" cy="673.8" r="28.3"/>
</svg>
